<?xml version="1.0" encoding="utf-8"?>
<!-- Generator: Adobe Illustrator 19.1.0, SVG Export Plug-In . SVG Version: 6.00 Build 0)  -->
<!DOCTYPE svg PUBLIC "-//W3C//DTD SVG 1.1//EN" "http://www.w3.org/Graphics/SVG/1.1/DTD/svg11.dtd">
<svg version="1.1" id="Capa_1" xmlns="http://www.w3.org/2000/svg" xmlns:xlink="http://www.w3.org/1999/xlink" x="0px" y="0px"
	 width="60px" height="60px" viewBox="-253 253.9 60 60" style="enable-background:new -253 253.9 60 60;" xml:space="preserve">
<style type="text/css">
	.st0{display:none;opacity:0.2;fill:#F4F4F4;enable-background:new    ;}
	.st1{opacity:0.2;fill:#F4F4F4;enable-background:new    ;}
	.st2{enable-background:new    ;}
	.st3{opacity:0.4;fill:#EBEBEB;enable-background:new    ;}
	.st4{opacity:0.64;fill:#EBEBEB;enable-background:new    ;}
</style>
<path class="st0" d="M-241.2,298.5v-22.4c0-0.6,0.4-1,1-1h34.6c0.6,0,1,0.4,1,1v22.4H-241.2z"/>
<g>
	<path class="st1" d="M-232.8,302.2c1.5-0.7,3.5-1.8,4.9-2.5h-13.5c-0.6,0-1,0.4-1,1v2.4c0,0.6,0.4,1,1,1h7.1
		C-234.1,303.3-233.6,302.6-232.8,302.2z"/>
	<path class="st1" d="M-226.7,297.8c-0.9-0.6-2.9-2-3.5-3.8c-0.1-0.1,0-7.1,0-7.1c0.1-2.2,1.5-6.2,7.5-6.2s7.7,4.1,7.8,6.3v1
		c0,0.5,0.2,5.4-0.2,6.4c-0.6,1.5-2.9,3.4-3.6,3.8l-0.1,0.1v0.2h14.2v-22.4c0-0.6-0.4-1-1-1h-34.6c-0.6,0-1,0.4-1,1v22.4h14.5V297.8
		z"/>
	<path class="st1" d="M-204.2,299.7h-14.1c0.9,0.5,3.2,1.6,4.9,2.4c0.8,0.4,1.5,1.1,1.8,2h7.4c0.6,0,1-0.4,1-1v-2.4
		C-203.2,300.1-203.7,299.7-204.2,299.7z"/>
</g>
<g class="st2">
	<path class="st3" d="M-241.2,276.1c0-0.6,0.4-1,1-1h30.9c-0.6-0.4-1.3-0.8-2-1.2c-0.8-0.4-1.6-0.8-2.3-1.1c0.4-0.8,1-1.6,1.3-2.4
		c0.6-1.5,0.6-3,0.3-4.6c-0.3-1.3-1-2.4-2.3-2.9c-2.8-1.2-5.5,0.3-5.9,3.3c-0.2,1.8-0.1,3.6,0.8,5.2c0.2,0.5,0.6,0.9,0.9,1.2
		c-1.4,0.8-2.9,1.6-4.4,2.4c-0.1,0-0.4,0-0.5-0.1c-0.6-0.3-1.2-0.8-1.9-1.1c-0.8-0.4-1.6-0.8-2.5-1.2c1.1-0.9,1.7-2.1,1.8-3.4
		c0.1-1.1,0.1-2.2,0-3.3c-0.2-2.1-1.8-3.5-3.9-3.5c-2.3,0-3.9,1.2-4.2,3.3c-0.3,2.5-0.3,5,1.8,6.9c-0.1,0-0.1,0.1-0.2,0.1
		c-1.3,0.7-2.7,1.4-4.1,2.1c-0.3,0.2-0.5,0.2-0.8,0c-1.3-0.7-2.6-1.3-3.9-2c-0.1,0-0.3-0.1-0.5-0.2c1.1-0.9,1.7-2.1,1.8-3.4
		c0.1-1.2,0.1-2.3,0-3.4c-0.3-1.9-1.6-3.1-3.5-3.4s-3.7,0.6-4.3,2.2c-0.8,2.3-0.7,4.6,0.5,6.8c0.2,0.4,0.6,0.7,0.9,1.1
		c-0.2,0.1-0.3,0.1-0.5,0.2c-1.9,0.8-3.7,1.7-5.2,3.1c-0.3,0.3-0.6,0.7-0.6,1.1c-0.1,1.5-0.2,3-0.3,4.5c3.9,0,7.9,0,11.8,0
		L-241.2,276.1L-241.2,276.1z"/>
	<path class="st3" d="M-193.3,277.2c-0.1-0.5-0.4-1-0.7-1.3c-1.3-1.2-2.9-2-4.5-2.7c-0.4-0.2-0.8-0.3-1.2-0.5c1-0.9,1.6-1.9,1.7-3.1
		c0.2-1.2,0.2-2.4,0.1-3.6c-0.2-2.1-1.9-3.4-4.1-3.4s-3.7,1.4-4,3.5c-0.3,2.4-0.2,4.8,1.7,6.6c-1.5,0.9-3.1,1.6-4.6,2.4h3.3
		c0.6,0,1,0.4,1,1v5.4c3.8,0,7.6,0,11.4,0C-193.1,280.1-193,278.6-193.3,277.2z"/>
</g>
<path class="st0" d="M-241.5,304.1c-0.6,0-1-0.4-1-1v-2.4c0-0.6,0.4-1,1-1h37.2c0.6,0,1,0.4,1,1v2.4c0,0.6-0.4,1-1,1H-241.5z"/>
<path class="st4" d="M-211.5,312.7v-7.4c0-1.4-0.8-2.6-2-3.2c-2.1-1-5.1-2.5-5.3-2.6v-1.2l0.1-0.1c0.7-0.4,3-2.3,3.6-3.8
	c0.4-1,0.2-5.9,0.2-6.4v-1c-0.1-2.2-1.8-6.3-7.8-6.3s-7.4,4-7.5,6.2c0,0-0.1,7,0,7.1c0.6,1.8,2.6,3.2,3.5,3.8v1.2
	c-0.2,0.1-3.9,2.1-6.2,3.2c-1,0.5-1.6,1.6-1.6,2.7v7.9c0,0.6,0.5,1.1,1,1.1h20.8C-212,313.8-211.5,313.3-211.5,312.7z"/>
</svg>
