<?xml version="1.0" encoding="utf-8"?>
<!-- Generator: Adobe Illustrator 19.1.0, SVG Export Plug-In . SVG Version: 6.00 Build 0)  -->
<!DOCTYPE svg PUBLIC "-//W3C//DTD SVG 1.1//EN" "http://www.w3.org/Graphics/SVG/1.1/DTD/svg11.dtd">
<svg version="1.1" id="Layer_1" xmlns="http://www.w3.org/2000/svg" xmlns:xlink="http://www.w3.org/1999/xlink" x="0px" y="0px"
	 width="100px" height="100px" viewBox="-233 233.9 100 100" style="enable-background:new -233 233.9 100 100;"
	 xml:space="preserve">
<style type="text/css">
	.st0{opacity:0.8;}
	.st1{opacity:0.7;fill:#EBEBEB;}
	.st2{opacity:0.85;fill:#EBEBEB;}
	.st3{opacity:0.5;fill:#EBEBEB;}
	.st4{fill:#EBEBEB;}
</style>
<g class="st0">
	<path class="st1" d="M-178.9,298.7l-9.9,16.4c-7.6-1.2-12.7-5-17.8-10.8c-5.1-5.8-7.6-12.6-7.6-20.4c0-5.4,0.6-9.2,3.3-14
		l13.1,20.5c4.7,6.3,9,9.9,14,9.9C-180.6,300.4-178.9,298.7-178.9,298.7z"/>
	<path class="st2" d="M-198.1,280l-10-15.1c2.9-3.6,7-6.9,11.2-9c4.2-2,9.1-3.1,14-3.1c14,0,24.3,10,27.1,14.8c0,0-26,0-27.1,0
		c-3.6,0-6.9,1.1-9.8,3.3C-195.7,273.1-197.2,276.4-198.1,280z"/>
	<path class="st3" d="M-172.3,271.6h18c1.5,3.6,2.4,8.3,2.4,12.3c0,8.5-3,15.8-9,21.9c-6,6.1-14.8,9.3-22.1,9.3l13.1-22
		c1.9-2.8,2.4-5.8,2.4-9.2C-167.4,279.5-169.2,274.8-172.3,271.6z"/>
	<circle class="st4" cx="-183" cy="283.9" r="10.7"/>
</g>
</svg>
