<?xml version="1.0" encoding="utf-8"?>
<!-- Generator: Adobe Illustrator 19.1.0, SVG Export Plug-In . SVG Version: 6.00 Build 0)  -->
<!DOCTYPE svg PUBLIC "-//W3C//DTD SVG 1.1//EN" "http://www.w3.org/Graphics/SVG/1.1/DTD/svg11.dtd">
<svg version="1.1" id="Capa_1" xmlns="http://www.w3.org/2000/svg" xmlns:xlink="http://www.w3.org/1999/xlink" x="0px" y="0px"
	 width="60px" height="60px" viewBox="-253 253.9 60 60" style="enable-background:new -253 253.9 60 60;" xml:space="preserve">
<style type="text/css">
	.st0{opacity:0.4;}
	.st1{fill:#EBEBEB;}
	.st2{opacity:0.8;}
</style>
<g class="st0">
	<path class="st1" d="M-223,255.9c-15.5,0-28,12.5-28,28s12.5,28,28,28c5.7,0,11-1.7,15.5-4.7l10.8,3.9l-4.9-9.3
		c4.1-4.9,6.6-11.2,6.6-18C-195,268.4-207.5,255.9-223,255.9L-223,255.9z"/>
</g>
<g class="st2">
	<path class="st1" d="M-231.5,288.6c-1.7-1.5-2.9-3.5-3.4-5.6c-0.4-1.5-0.2-2.5-0.2-2.6c0.4-4,3.2-6.9,6.8-6.9c2.1,0,4,2,5.3,3.7
		c1.3-1.7,3.5-3.7,5.4-3.7c3.6,0,6.4,2.9,6.8,6.9c0,0.2,0.1,1.1-0.2,2.6c-0.5,2.1-1.7,4.1-3.4,5.6l-8.6,7.7L-231.5,288.6z"/>
</g>
</svg>
