<?xml version="1.0" encoding="utf-8"?>
<!-- Generator: Adobe Illustrator 19.1.0, SVG Export Plug-In . SVG Version: 6.00 Build 0)  -->
<!DOCTYPE svg PUBLIC "-//W3C//DTD SVG 1.1//EN" "http://www.w3.org/Graphics/SVG/1.1/DTD/svg11.dtd">
<svg version="1.1" xmlns="http://www.w3.org/2000/svg" xmlns:xlink="http://www.w3.org/1999/xlink" x="0px" y="0px" width="258.3px"
	 height="258.3px" viewBox="-154 154.6 258.3 258.3" style="enable-background:new -154 154.6 258.3 258.3;" xml:space="preserve">
<style type="text/css">
	.st0{opacity:0.8;fill:#EBEBEB;}
	.st1{fill:#C24856;}
</style>
<g id="レイヤー_2_1_">
	<path class="st0" d="M63.6,286.6c0-13.9-8.8-25.8-21.2-30.4c-8.5-27.1-33.8-46.8-63.6-46.8c-30,0-55.4,19.9-63.7,47.1
		c-12,4.7-20.5,16.4-20.5,30.1c0,17.8,14.5,32.3,32.3,32.3v-59.6c7.1-21.9,27.7-37.7,51.9-37.7c25,0,46.2,17,52.5,40v57.4
		c0,0,0.1,0,0.1,0c-7.1,15.6-21.5,27.2-38.8,30.6c-1.8-3.4-5.4-5.7-9.5-5.7c-5.9,0-10.8,4.8-10.8,10.8c0,5.9,4.8,10.8,10.8,10.8
		c4.9,0,9.1-3.3,10.4-7.8c21.9-4,39.8-19.5,47.2-40C53.9,313.5,63.6,301.2,63.6,286.6z"/>
</g>
<g id="レイヤー_1">
	<g id="レイヤー_1_1_">
		<path class="st1" d="M-21.4,154.7c-34.3-0.8-67.1,11.8-91.9,35.6c-25,23.8-39.1,55.9-39.9,90.3c-1.7,71.2,54.6,130.5,125.6,132.2
			c1.1,0,2.1,0,3.3,0c33.2,0,64.6-12.6,88.7-35.6c25-23.8,39.1-55.9,39.9-90.3C105.9,215.7,49.6,156.4-21.4,154.7z M-27.4,400.9
			c-64.4-1.6-115.5-55.4-113.9-120c0.7-31.3,13.6-60.4,36.2-82c2.2-2.2,4.6-4.2,6.9-6.2L42.4,379.9C22.1,394.2-2.2,401.5-27.4,400.9
			z M92.3,286.6c-0.7,31.3-13.6,60.4-36.2,82c-1.4,1.4-2.7,2.6-4.2,3.8L-88.5,185.6c18.8-12.4,41-19.1,63.9-19.1c0.9,0,2,0,2.9,0
			C42.7,168.1,93.8,222,92.3,286.6z"/>
	</g>
</g>
</svg>
