<?xml version="1.0" encoding="utf-8"?>
<!-- Generator: Adobe Illustrator 19.1.0, SVG Export Plug-In . SVG Version: 6.00 Build 0)  -->
<!DOCTYPE svg PUBLIC "-//W3C//DTD SVG 1.1//EN" "http://www.w3.org/Graphics/SVG/1.1/DTD/svg11.dtd">
<svg version="1.1" id="Capa_1" xmlns="http://www.w3.org/2000/svg" xmlns:xlink="http://www.w3.org/1999/xlink" x="0px" y="0px"
	 width="60px" height="60px" viewBox="-253 253.9 60 60" style="enable-background:new -253 253.9 60 60;" xml:space="preserve">
<style type="text/css">
	.st0{opacity:0.4;fill:#EBEBEB;enable-background:new    ;}
	.st1{display:none;opacity:0.8;fill:#EBEBEB;enable-background:new    ;}
	.st2{opacity:0.8;fill:#EBEBEB;enable-background:new    ;}
</style>
<polygon class="st0" points="-193,310.4 -250.9,310.4 -250.9,310.4 -252.9,310.4 -252.9,310.4 -252.9,310.4 -252.9,308.4 
	-252.9,308.4 -252.9,257.4 -248.9,257.4 -248.9,306.4 -193,306.4 "/>
<polygon class="st0" points="-243.5,297.9 -230.7,286.3 -217.6,287.9 -209.9,271.6 -197.7,261.7 -196.1,264 -207.7,273.5 
	-215.9,291.1 -229.9,289.4 -241.7,300.1 "/>
<polygon class="st1" points="-230,288.8 -216.2,290.5 -208.1,273.2 -196.8,263.9 -197.8,262.5 -209.5,271.9 -217.3,288.5 
	-230.6,286.9 -242.8,297.9 -241.7,299.3 "/>
<path class="st2" d="M-232.6,287.8c0,1.4,1.1,2.5,2.5,2.5s2.5-1.1,2.5-2.5s-1.1-2.5-2.5-2.5S-232.6,286.4-232.6,287.8z"/>
<path class="st2" d="M-219.6,289.8c0,1.4,1.1,2.5,2.5,2.5s2.5-1.1,2.5-2.5s-1.1-2.5-2.5-2.5S-219.6,288.4-219.6,289.8z"/>
<path class="st2" d="M-211.4,272.9c0,1.4,1.1,2.5,2.5,2.5s2.5-1.1,2.5-2.5s-1.1-2.5-2.5-2.5S-211.4,271.5-211.4,272.9z"/>
<path class="st2" d="M-200.5,264.2c0,1.4,1.1,2.5,2.5,2.5s2.5-1.1,2.5-2.5s-1.1-2.5-2.5-2.5S-200.5,262.8-200.5,264.2z"/>
</svg>
