<?xml version="1.0" encoding="utf-8"?>
<!-- Generator: Adobe Illustrator 19.1.0, SVG Export Plug-In . SVG Version: 6.00 Build 0)  -->
<!DOCTYPE svg PUBLIC "-//W3C//DTD SVG 1.1//EN" "http://www.w3.org/Graphics/SVG/1.1/DTD/svg11.dtd">
<svg version="1.1" id="Capa_1" xmlns="http://www.w3.org/2000/svg" xmlns:xlink="http://www.w3.org/1999/xlink" x="0px" y="0px"
	 width="60px" height="60px" viewBox="-253 253.9 60 60" style="enable-background:new -253 253.9 60 60;" xml:space="preserve">
<style type="text/css">
	.st0{display:none;opacity:0.4;fill:#EBEBEB;enable-background:new    ;}
	.st1{opacity:0.8;fill:#EBEBEB;enable-background:new    ;}
	.st2{display:none;opacity:0.9;fill:#EBEBEB;enable-background:new    ;}
	.st3{opacity:0.4;fill:#EBEBEB;enable-background:new    ;}
</style>
<path class="st0" d="M-196,261.9h-54c-0.6,0-1,0.4-1,1v38c0,0.6,0.4,1,1,1h54c0.6,0,1-0.4,1-1v-38C-195,262.3-195.4,261.9-196,261.9
	z"/>
<path class="st1" d="M-199.1,290.6"/>
<rect x="-242.2" y="294.6" class="st2" width="43.5" height="3.3"/>
<rect x="-247.7" y="294.6" class="st2" width="3.3" height="3.3"/>
<path class="st3" d="M-194,304.4h-24.5v1.3h-10.4v-1.3H-252c-0.6,0-1,0.4-1,1v3c0,0.6,0.4,1,1,1h58c0.6,0,1-0.4,1-1v-3
	C-193,304.8-193.4,304.4-194,304.4z"/>
<path class="st3" d="M-212.5,293.4c-2-1.1-6.2-3.6-6.3-3.7l0-1.2c0,0,3-1.1,3.6-3.9s0.3-7,0.3-7c-0.1-2.2-1.8-6.3-7.8-6.3
	s-7.7,4.1-7.8,6.3c0,0-0.3,4.2,0.2,6.8c0.4,2,2.5,3.8,3.6,4v1.2c-0.2,0.2-4.7,2.7-6.8,3.8c-0.6,0.4-1,1-1,1.7l0,6.8l23,0l0-6.9
	C-211.5,294.4-211.9,293.7-212.5,293.4z"/>
<path class="st3" d="M-196,261.9h-54c-0.6,0-1,0.4-1,1v38c0,0.6,0.4,1,1,1h54c0.6,0,1-0.4,1-1v-38C-195,262.3-195.4,261.9-196,261.9
	z"/>
</svg>
