<?xml version="1.0" encoding="utf-8"?>
<!-- Generator: Adobe Illustrator 19.1.0, SVG Export Plug-In . SVG Version: 6.00 Build 0)  -->
<!DOCTYPE svg PUBLIC "-//W3C//DTD SVG 1.1//EN" "http://www.w3.org/Graphics/SVG/1.1/DTD/svg11.dtd">
<svg version="1.1" id="Layer_1" xmlns="http://www.w3.org/2000/svg" xmlns:xlink="http://www.w3.org/1999/xlink" x="0px" y="0px"
	 width="512px" height="341.9px" viewBox="-27 113 512 341.9" style="enable-background:new -27 113 512 341.9;"
	 xml:space="preserve">
<style type="text/css">
	.st0{fill:#EBEBEB;}
	.st1{display:none;fill:#EBEBEB;}
	.st2{opacity:0.8;fill:#EBEBEB;}
	.st3{fill:#FFFFFF;}
	.st4{display:none;fill:none;stroke:#EBEBEB;stroke-width:2.8346;stroke-miterlimit:10;}
</style>
<g>
	<g>
		<path class="st0" d="M37.6,329.7c14.1,0,25.6-11.6,25.6-25.8v-56.4c0-14.1-11.5-25.8-25.6-25.8s-25.6,11.5-25.6,25.8v56.4
			C11.8,318,23.4,329.7,37.6,329.7z"/>
		<path class="st0" d="M82.9,301.4c0,25.8-21.9,43.8-45.5,43.8S-8,327.2-8,301.4h-14.4c0,29.2,23.1,53.7,51.4,57.6v30.8h17.1V359
			c28.4-4.3,51.4-28.3,51.4-57.6H82.9z"/>
	</g>
</g>
<circle class="st1" cx="81.8" cy="269.3" r="5.7"/>
<circle class="st1" cx="81.8" cy="294.8" r="5.7"/>
<circle class="st1" cx="81.8" cy="320.4" r="5.7"/>
<circle class="st1" cx="81.8" cy="345.9" r="5.7"/>
<circle class="st1" cx="81.8" cy="371.4" r="5.7"/>
<rect x="128.5" y="299.7" class="st2" width="318.8" height="12.2"/>
<g>
	<path class="st0" d="M449.7,339.1c-18.4,0-33.4-15-33.4-33.4s15-33.4,33.4-33.4s33.4,15,33.4,33.4S468.1,339.1,449.7,339.1z"/>
	<path class="st3" d="M449.7,273.8c17.6,0,31.9,14.3,31.9,31.9s-14.3,31.9-31.9,31.9s-31.9-14.3-31.9-31.9S432.1,273.8,449.7,273.8
		 M449.7,270.9c-19.2,0-34.8,15.6-34.8,34.8c0,19.2,15.6,34.8,34.8,34.8s34.8-15.6,34.8-34.8C484.5,286.5,468.9,270.9,449.7,270.9
		L449.7,270.9z"/>
</g>
<polygon class="st1" points="374.4,310.9 398.9,342.4 423.5,310.9 423.5,286.8 374.4,286.8 "/>
<line class="st4" x1="129.9" y1="302" x2="129.9" y2="322.9"/>
<line class="st4" x1="287.8" y1="302" x2="287.8" y2="322.9"/>
<line class="st4" x1="208.9" y1="302" x2="208.9" y2="322.9"/>
<line class="st4" x1="366.8" y1="302" x2="366.8" y2="322.9"/>
<line class="st4" x1="445.8" y1="302" x2="445.8" y2="322.9"/>
</svg>
