<?xml version="1.0" encoding="utf-8"?>
<!-- Generator: Adobe Illustrator 19.1.0, SVG Export Plug-In . SVG Version: 6.00 Build 0)  -->
<!DOCTYPE svg PUBLIC "-//W3C//DTD SVG 1.1//EN" "http://www.w3.org/Graphics/SVG/1.1/DTD/svg11.dtd">
<svg version="1.1" id="Capa_1" xmlns="http://www.w3.org/2000/svg" xmlns:xlink="http://www.w3.org/1999/xlink" x="0px" y="0px"
	 width="90px" height="60px" viewBox="-268 253.9 90 60" style="enable-background:new -268 253.9 90 60;" xml:space="preserve">
<style type="text/css">
	.st0{opacity:0.8;fill:#EBEBEB;enable-background:new    ;}
	.st1{enable-background:new    ;}
	.st2{fill:none;stroke:#EBEBEB;stroke-width:2.126;stroke-miterlimit:10;}
	.st3{fill:#EBEBEB;}
</style>
<path class="st0" d="M-233.2,303.5h-28.9v-30.8c0-0.7-0.5-1.1-1.1-1.1h-2.3c-0.7,0-1.1,0.5-1.1,1.1v30.8h-0.1
	c-0.7,0-1.1,0.5-1.1,1.1v1.7c0,0.7,0.5,1.1,1.1,1.1h33.7c0.7,0,1.1-0.5,1.1-1.1v-1.7C-232.1,303.9-232.5,303.5-233.2,303.5z"/>
<path class="st0" d="M-178,306.1l0-7.3c0-1.6-0.9-3-2.3-3.7c-2.4-1.2-5.9-2.9-6-2.9v-1.4l0.1-0.1c0.8-0.5,3.5-2.6,4.1-4.3
	c0.5-1.1,0.2-6.7,0.2-7.3v-1.1c-0.1-2.5-2.1-7.2-8.9-7.2c-6.8,0-8.4,4.5-8.6,7c0,0-0.2,7.9,0,8.1c0.7,2.1,3,3.6,4,4.3v1.4
	c-0.2,0.1-4.5,2.3-7,3.7c-1.1,0.6-1.9,1.8-1.9,3.1l0,7.8c0,0.7,0.5,1.2,1.2,1.2h23.8C-178.5,307.3-178,306.8-178,306.1z"/>
<g class="st1">
	<g>
		<line class="st2" x1="-246.2" y1="281.5" x2="-217.3" y2="281.5"/>
		<g>
			<polygon class="st3" points="-245.2,284.7 -250.7,281.5 -245.2,278.3 			"/>
		</g>
		<g>
			<polygon class="st3" points="-218.2,284.7 -212.7,281.5 -218.2,278.3 			"/>
		</g>
	</g>
</g>
</svg>
