<?xml version="1.0" encoding="utf-8"?>
<!-- Generator: Adobe Illustrator 19.1.0, SVG Export Plug-In . SVG Version: 6.00 Build 0)  -->
<!DOCTYPE svg PUBLIC "-//W3C//DTD SVG 1.1//EN" "http://www.w3.org/Graphics/SVG/1.1/DTD/svg11.dtd">
<svg version="1.1" id="レイヤー_2" xmlns="http://www.w3.org/2000/svg" xmlns:xlink="http://www.w3.org/1999/xlink" x="0px"
	 y="0px" width="24px" height="24px" viewBox="-271 271.9 24 24" style="enable-background:new -271 271.9 24 24;"
	 xml:space="preserve">
<style type="text/css">
	.st0{opacity:0.8;fill:#EBEBEB;}
</style>
<path class="st0" d="M-259,274c5.5,0,9.9,4.4,9.9,9.9s-4.4,9.9-9.9,9.9c-5.5,0-9.9-4.4-9.9-9.9S-264.5,274-259,274 M-259,273.5
	c-5.7,0-10.4,4.7-10.4,10.4s4.7,10.4,10.4,10.4c5.7,0,10.4-4.7,10.4-10.4S-253.3,273.5-259,273.5L-259,273.5z M-262.5,280.8
	c-0.4,0-0.6,0.3-0.6,0.6s0.3,0.6,0.6,0.6s0.6-0.3,0.6-0.6S-262.1,280.8-262.5,280.8z M-255.5,280.8c-0.4,0-0.6,0.3-0.6,0.6
	s0.3,0.6,0.6,0.6s0.6-0.3,0.6-0.6S-255.1,280.8-255.5,280.8z M-255.9,287.1h-6.2v0.5h6.2V287.1z"/>
</svg>
