<?xml version="1.0" encoding="utf-8"?>
<!-- Generator: Adobe Illustrator 19.1.0, SVG Export Plug-In . SVG Version: 6.00 Build 0)  -->
<!DOCTYPE svg PUBLIC "-//W3C//DTD SVG 1.1//EN" "http://www.w3.org/Graphics/SVG/1.1/DTD/svg11.dtd">
<svg version="1.1" id="レイヤー_1" xmlns="http://www.w3.org/2000/svg" xmlns:xlink="http://www.w3.org/1999/xlink" x="0px"
	 y="0px" width="258.3px" height="258.3px" viewBox="-154 154.6 258.3 258.3"
	 style="enable-background:new -154 154.6 258.3 258.3;" xml:space="preserve">
<style type="text/css">
	.st0{opacity:0.4;fill:#EBEBEB;enable-background:new    ;}
	.st1{fill:#EBEBEB;}
	.st2{fill:#C24856;}
</style>
<g id="レイヤー_2">
	<path class="st0" d="M-4.5,259.3h-30.4v-10.2c0-2.4,2-4.5,4.5-4.5h21.5c2.4,0,4.5,2,4.5,4.5v10.2H-4.5z M31.6,249
		c0-2.4-2-4.5-4.5-4.5H5.6c-2.4,0-4.5,2-4.5,4.5v10.2h30.4V249H31.6z M61.2,262.8v74.5h-172v-91.4c0-6.6,5.4-11.9,11.9-11.9h45.2
		c6.6,0,11.9,5.4,11.9,11.9v16.8H61.2z M49.2,274.7h-103v-0.2h-45.2v51H49.2V274.7z"/>
	<polygon class="st1" points="38.9,273.6 13.7,251.3 15.2,284.9 24.1,280.6 29.1,291 34.8,288.3 29.9,277.8 	"/>
</g>
<g id="レイヤー_1_1_">
	<path class="st2" d="M-21.4,154.7c-34.3-0.8-67.1,11.8-91.9,35.6c-25,23.8-39.1,55.9-39.9,90.3c-1.7,71.2,54.6,130.5,125.6,132.2
		c1.1,0,2.1,0,3.3,0c33.2,0,64.6-12.6,88.7-35.6c25-23.8,39.1-55.9,39.9-90.3C105.9,215.7,49.6,156.4-21.4,154.7z M-27.4,400.9
		c-64.4-1.6-115.5-55.4-113.9-120c0.7-31.3,13.6-60.4,36.2-82c2.2-2.2,4.6-4.2,6.9-6.2L42.4,379.9C22.1,394.2-2.2,401.5-27.4,400.9z
		 M92.3,286.6c-0.7,31.3-13.6,60.4-36.2,82c-1.4,1.4-2.7,2.6-4.2,3.8L-88.5,185.6c18.8-12.4,41-19.1,63.9-19.1c0.9,0,2,0,2.9,0
		C42.7,168.1,93.8,222,92.3,286.6z"/>
</g>
</svg>
